<mxfile host="app.diagrams.net" modified="2023-04-24T13:57:14.212Z" agent="Mozilla/5.0 (Windows NT 10.0; Win64; x64) AppleWebKit/537.36 (KHTML, like Gecko) Chrome/112.0.0.0 Safari/537.36" version="21.2.1" etag="ino1yeB4VI5FRyoOFJ8n" type="github">
  <diagram name="‫עמוד-1‬" id="T3AiCW2sv71GYcFbHvfz">
    <mxGraphModel>
      <root>
        <mxCell id="0" />
        <mxCell id="1" parent="0" />
      </root>
    </mxGraphModel>
  </diagram>
</mxfile>
